<svg xmlns="http://www.w3.org/2000/svg" width="32" height="32" xmlns:v="https://vecta.io/nano"><path d="M9 18H7v14h2c.55 0 1-.45 1-1V19c0-.55-.45-1-1-1zm14 0c-.55 0-1 .45-1 1v12c0 .55.45 1 1 1h2V18h-2zm9-2c0-8.837-7.163-16-16-16S0 7.163 0 16c0 1.919.338 3.759.958 5.464C.349 22.502 0 23.71 0 25c0 3.526 2.608 6.443 6 6.929V18.072c-.997.143-1.927.495-2.742 1.012A13.09 13.09 0 0 1 3 16.5c0-7.18 5.82-13 13-13s13 5.82 13 13c0 .885-.088 1.749-.257 2.584-.816-.517-1.745-.87-2.743-1.013v13.858c3.392-.485 6-3.402 6-6.929 0-1.29-.349-2.498-.958-3.536A15.96 15.96 0 0 0 32 15.999z"/></svg>